<?xml version="1.0" encoding="utf-8"?>
<!-- Generator: Adobe Illustrator 27.2.0, SVG Export Plug-In . SVG Version: 6.00 Build 0)  -->
<svg version="1.1" id="Layer_1" xmlns="http://www.w3.org/2000/svg" xmlns:xlink="http://www.w3.org/1999/xlink" x="0px" y="0px"
	 viewBox="0 0 500 500" style="enable-background:new 0 0 500 500;" xml:space="preserve">
<style type="text/css">
	.st0{fill:#FFFF00;}
	.st1{fill:#1F212B;}
	.st2{fill:#C4DCED;}
	.st3{fill:#ED5A6A;}
	.st4{fill:#B1B0C0;}
	.st5{fill:#FBFBFB;}
	.st6{fill:#545D9D;}
	.st7{fill:#F5E25A;}
</style>
<g>
	<path class="st0" d="M437.39,464.93c-4.53,0-9.22-0.07-13.95-0.2c-19.13-0.54-31.7-13.2-32.01-32.26
		c-0.12-7.43-0.1-14.7-0.07-22.35H108.63c0.01,6.51,0.01,13.13-0.02,19.75c-0.09,22.33-12.37,34.73-34.58,34.9
		c-1.76,0.01-3.53,0.03-5.29,0.05c-3.21,0.04-6.42,0.07-9.62,0.07c-4,0-7.35-0.06-10.54-0.18c-18.67-0.7-30.94-13.19-31.27-31.81
		c-0.15-8.29-0.11-16.4-0.08-24.98c0.01-1.53,0.01-3.07,0.02-4.62C8.11,396.29,3.9,385.37,4.7,370.72
		c0.26-4.69,0.25-9.75-0.01-15.04c-0.7-14.07,3.33-24.71,11.99-31.74c0.02-3.58,0.05-7.14,0.07-10.63
		c0.1-12.92,0.2-25.13-0.22-37.46c-0.69-20.4,3.66-38.65,13.32-55.8c0.2-0.36,0.41-0.72,0.62-1.09c-0.29-0.01-0.58-0.02-0.86-0.04
		c-17.98-0.96-29.83-12.62-30.91-30.44c-0.29-4.78-0.27-9.1,0.05-13.18c1.38-17.31,13.5-28.83,30.87-29.36
		c1.99-0.06,4.09-0.09,6.63-0.09c1.69,0,3.38,0.01,5.07,0.02c1.63,0.01,3.26,0.02,4.89,0.02l7.33,0c0.93-5.31,1.57-10.76,2.24-16.41
		c0.57-4.8,1.15-9.77,1.94-14.74c1.07-6.74,1.96-13.72,2.83-20.47c1.05-8.21,2.14-16.7,3.58-25.12
		c3.48-20.36,21.7-34.05,45.34-34.08c22.96-0.03,45.91-0.04,68.86-0.04l87.05,0.01l63.79-0.01c20.04,0,40.08,0.01,60.12,0.03
		c27.72,0.03,43.21,13.32,47.35,40.62c2.8,18.47,5.36,36.57,8.07,55.73c0.68,4.79,1.36,9.61,2.04,14.45
		c3.16-0.01,6.33-0.02,9.49-0.02c4.86,0,8.88,0.02,12.64,0.06c19.25,0.22,31.7,12.25,32.48,31.39c0.18,4.37,0.3,8.67-0.16,13.2
		c-1.65,16.17-13.17,27.27-29.34,28.27c-0.64,0.04-1.28,0.07-1.95,0.1c14.82,25.05,15.3,51.76,13.56,76.96
		c-0.42,6.12-0.43,12.22-0.44,18.68c0,3.24-0.01,6.56-0.07,9.9c9.16,10.4,14.14,25.74,13.5,42.29
		c-0.57,14.56-5.46,27.19-13.64,35.65c0,1.71,0.01,3.43,0.02,5.16c0.03,8.1,0.06,16.47-0.06,24.8
		c-0.29,19.36-12.46,31.76-31.78,32.36C446.56,464.86,441.98,464.93,437.39,464.93z"/>
</g>
<g>
	<path class="st1" d="M450.25,206.91c3.23,6.52,5.22,11.56,8.06,16.07c14.05,22.29,14.9,47.05,13.17,72.07
		c-0.8,11.51-0.22,22.96-0.69,34.24c18.22,15.55,18.3,54.4,0,67.72c0,11.55,0.14,23.36-0.04,35.17
		c-0.19,12.82-7.35,20.15-20.15,20.55c-8.93,0.28-17.89,0.26-26.83,0c-12.64-0.36-20.15-7.92-20.35-20.46
		c-0.19-11.16-0.04-22.32-0.04-34.15c-102.02,0-203.72,0-306.76,0c0,10.25,0.03,20.98-0.01,31.7c-0.06,15.67-7.13,22.83-22.68,22.95
		c-8.3,0.07-16.62,0.27-24.91-0.04c-12.24-0.46-19.51-7.87-19.72-20.02c-0.21-11.81-0.04-23.63-0.04-36.11
		c-10.72-4.94-13.17-14.28-12.57-25.22c0.3-5.42,0.26-10.87-0.01-16.29c-0.53-10.65,2.04-19.66,11.99-24.63
		c0-18.67,0.48-36.85-0.14-55c-0.6-17.73,3.08-34.04,11.78-49.5c3.21-5.69,6.86-11.4,8.35-18.25c-6.35-1.48-12.41-0.43-18.41-0.75
		c-11.91-0.63-18.85-7.33-19.57-19.18c-0.23-3.82-0.27-7.69,0.04-11.5c0.91-11.33,7.93-17.98,19.27-18.32
		c5.42-0.16,10.86-0.03,16.29-0.03c5.41,0,10.82,0,16.94,0c3.6-13.64,4.19-27.6,6.36-41.27c2.39-15.11,3.81-30.37,6.38-45.44
		c2.51-14.68,15.98-24.08,33.52-24.1c51.1-0.06,102.21-0.02,153.31-0.02c42.16,0,84.32-0.02,126.48,0.02
		c21.61,0.02,32.24,8.97,35.5,30.42c4.01,26.45,7.64,52.95,11.56,80.4c10.83,0,21.62-0.1,32.4,0.03
		c13.03,0.15,20.1,6.99,20.62,19.88c0.16,3.83,0.28,7.7-0.11,11.49c-1.06,10.36-7.7,16.86-18.14,17.51
		C464.78,207.23,458.41,206.91,450.25,206.91z M426.29,181.7c0-2.53,0.22-4.45-0.03-6.3c-4.39-31.9-8.81-63.79-13.29-95.68
		c-2.09-14.87-7.8-19.87-22.7-19.88c-93.29-0.02-186.58-0.02-279.86,0c-15.94,0-21.28,4.87-23.54,21.11
		c-3.57,25.58-7.51,51.11-10.56,76.76c-0.93,7.79-3.35,15.55-2.51,24.01c68.95,0,137.55,0,206.09,0
		c15.34-36.63,32.68-50.6,60.09-48.49c25.39,1.96,43.47,18.93,51.22,48.45C402.46,181.7,413.85,181.7,426.29,181.7z M458.49,305.54
		c-3.91,0-7.04,0-10.17,0c-16.61-0.02-33.21,0.01-49.82-0.08c-13.65-0.07-19.59-6.12-19.73-19.92c-0.05-4.47-0.01-8.94-0.01-13.42
		c0.03-17.52,4.67-22.22,22.02-22.24c18.1-0.02,36.2,0,56.15,0c-8.15-20.02-18.12-37.3-26.58-55.2c-120.5,0-240.19,0-360.62,0
		c-8.43,17.92-18.54,35.13-26.02,53.57c4.09,2.37,7.33,1.57,10.41,1.59c16.29,0.09,32.57-0.07,48.86,0.08
		c12.33,0.11,17.99,5.9,18.24,18.28c0.11,5.43,0.04,10.86,0.02,16.29c-0.07,15.13-5.73,20.92-20.6,20.97
		c-16.61,0.06-33.21-0.01-49.82,0.12c-3.05,0.02-6.39-1.07-9.43,1.6c-0.04,6.99-1.18,14.2,0.75,21.16c139.01,0,277.45,0,416.34,0
		C458.49,320.82,458.49,313.9,458.49,305.54z M469.72,342.63c-146.95,0-292.4,0-439.37,0c-1.66,13.88-1.76,27.17,0.18,41.79
		c146.81,0.63,292.79,0.75,439.47-0.06C470.96,369.64,471.38,356.8,469.72,342.63z M294.44,181.54c27.82,0,55.58,0,83.48,0
		c-5.58-24.49-21.75-36.66-46.37-35.42C313.1,147.06,296.81,162.38,294.44,181.54z M72.72,299.86c14.05-2.37,27.83,2.89,41.13-4.09
		c1.69-12.51,2.12-24.42-0.37-36.92c-13.45-5.8-27.02-1.94-40.76-3C72.72,270.55,72.72,284.19,72.72,299.86z M386.24,259.01
		c-1.5,13.02-2.04,24.68,0.33,37.16c13.46,6.19,27.24,2.01,40.46,3.04c0-15.34,0-29.21,0-43.67
		C413.2,257.26,399.66,252.84,386.24,259.01z M43.04,439.31c14.2,0,26.55,0,39.83,0c4-13.76,1.37-27.26,1.84-41.18
		c-14.83,0-28.68,0-43.45,0C41.82,412.1,39.17,425.61,43.04,439.31z M459.06,398.17c-15.16,0-29.02,0-43.88,0
		c1.15,14.15-2.96,28.02,2.75,41.11c13.76,0,26.1,0,39.23,0C460.85,425.71,458.06,412.39,459.06,398.17z M41.49,298.86
		c8.58,0.25,16.32,1.07,23.93-0.43c0-14.29,0-27.84,0-42c-8.24-0.24-15.97-1.11-23.93,0.58C41.49,271.07,41.49,284.39,41.49,298.86z
		 M458.19,298.71c0-14.24,0-27.98,0-42.06c-8.21,0-15.66,0-23.38,0c0,14.3,0,28.05,0,42.06
		C442.97,298.71,450.46,298.71,458.19,298.71z M55.98,193.73c5.55-6.81,4.53-15.1,6.14-23.9c-13.44,0.94-25.78-1.97-37.93,2.34
		c-1,7.54-2.23,14.36,1.25,21.56C35.61,193.73,45.69,193.73,55.98,193.73z M474.84,193.86c2.8-7.88,2.39-14.64,0.6-22.09
		c-12.32-3.27-24.59-1.33-38.32-1.93c3.04,8.9,1.15,17.62,7.19,24.02C454.61,193.86,464.41,193.86,474.84,193.86z"/>
	<path class="st2" d="M426.29,181.7c-12.44,0-23.84,0-35.1,0c-7.75-29.52-25.83-46.5-51.22-48.45
		c-27.41-2.11-44.75,11.86-60.09,48.49c-68.54,0-137.14,0-206.09,0c-0.84-8.47,1.59-16.22,2.51-24.01
		c3.05-25.64,6.99-51.18,10.56-76.76c2.27-16.24,7.6-21.11,23.54-21.11c93.29-0.02,186.58-0.02,279.86,0c14.9,0,20.61,5,22.7,19.88
		c4.48,31.89,8.9,63.78,13.29,95.68C426.52,177.26,426.29,179.17,426.29,181.7z M250.14,102.26c6.37,0,12.76,0.3,19.11-0.08
		c7.09-0.42,11.17-4.63,11.26-11.72c0.09-7.12-4-11.66-11.02-11.89c-13.04-0.44-26.12-0.44-39.16,0.06
		c-7.06,0.27-10.98,4.95-10.79,12.06c0.19,7.16,4.43,11.14,11.48,11.51C237.38,102.53,243.77,102.27,250.14,102.26z"/>
	<path class="st3" d="M458.49,305.54c0,8.36,0,15.28,0,22.81c-138.88,0-277.33,0-416.34,0c-1.94-6.96-0.79-14.17-0.75-21.16
		c3.04-2.67,6.38-1.57,9.43-1.6c16.6-0.13,33.21-0.06,49.82-0.12c14.87-0.05,20.53-5.84,20.6-20.97c0.03-5.43,0.09-10.86-0.02-16.29
		c-0.25-12.38-5.91-18.17-18.24-18.28c-16.28-0.15-32.57,0.01-48.86-0.08c-3.08-0.02-6.32,0.79-10.41-1.59
		c7.48-18.44,17.59-35.65,26.02-53.57c120.43,0,240.13,0,360.62,0c8.46,17.9,18.43,35.17,26.58,55.2c-19.96,0-38.05-0.01-56.15,0
		c-17.35,0.01-21.99,4.72-22.02,22.24c-0.01,4.47-0.04,8.95,0.01,13.42c0.14,13.8,6.08,19.85,19.73,19.92
		c16.61,0.09,33.21,0.06,49.82,0.08C451.45,305.54,454.58,305.54,458.49,305.54z M250.5,249.88c-24.88,0-49.77-0.03-74.65,0.03
		c-3.16,0.01-6.43,0.04-9.47,0.8c-14.2,3.57-21.98,16.26-20.07,32.34c1.44,12.16,14,22.38,28.13,22.41
		c50.08,0.09,100.17,0.1,150.25,0.02c17.73-0.03,29.24-11.31,29.21-28.18c-0.04-16.83-11.44-27.39-29.71-27.42
		C299.63,249.85,275.07,249.88,250.5,249.88z"/>
	<path class="st4" d="M469.72,342.63c1.66,14.16,1.24,27.01,0.28,41.74c-146.68,0.81-292.66,0.69-439.47,0.06
		c-1.94-14.63-1.84-27.91-0.18-41.79C177.33,342.63,322.77,342.63,469.72,342.63z M353.27,368.11
		c-12.47-3.13-305.85-1.9-311.49,1.38c2.35,5.27,7.1,3.19,10.78,3.19c97,0.11,193.99,0.09,290.99,0.08c2.55,0,5.13,0.08,7.63-0.29
		C353.64,372.1,353.89,370.2,353.27,368.11z M379.44,368.47c4.07,4.29,30.55,6.09,44.11,4.27c2.45-0.33,4.32-1.01,3.73-5.36
		C411.44,366.28,395.49,366.23,379.44,368.47z M439.48,369c7.28,5.39,8.93,5.2,12.18-0.94C447.79,366.05,444.15,365.87,439.48,369z"
		/>
	<path class="st2" d="M294.44,181.54c2.37-19.16,18.65-34.49,37.11-35.42c24.62-1.24,40.79,10.92,46.37,35.42
		C350.02,181.54,322.27,181.54,294.44,181.54z"/>
	<path class="st5" d="M72.72,299.86c0-15.68,0-29.31,0-44.02c13.74,1.06,27.31-2.8,40.76,3c2.49,12.51,2.06,24.42,0.37,36.92
		C100.55,302.76,86.77,297.49,72.72,299.86z"/>
	<path class="st5" d="M386.24,259.01c13.42-6.17,26.95-1.75,40.8-3.48c0,14.46,0,28.33,0,43.67c-13.22-1.03-27,3.15-40.46-3.04
		C384.21,283.69,384.75,272.03,386.24,259.01z"/>
	<path class="st6" d="M43.04,439.31c-3.87-13.7-1.22-27.21-1.77-41.18c14.77,0,28.62,0,43.45,0c-0.47,13.92,2.16,27.42-1.84,41.18
		C69.59,439.31,57.24,439.31,43.04,439.31z"/>
	<path class="st6" d="M459.06,398.17c-1,14.22,1.8,27.54-1.9,41.11c-13.12,0-25.47,0-39.23,0c-5.71-13.09-1.61-26.97-2.75-41.11
		C430.04,398.17,443.9,398.17,459.06,398.17z"/>
	<path class="st7" d="M41.49,298.86c0-14.47,0-27.79,0-41.86c7.96-1.69,15.69-0.82,23.93-0.58c0,14.16,0,27.71,0,42
		C57.81,299.93,50.07,299.11,41.49,298.86z"/>
	<path class="st7" d="M458.19,298.71c-7.73,0-15.21,0-23.38,0c0-14.01,0-27.76,0-42.06c7.71,0,15.17,0,23.38,0
		C458.19,270.73,458.19,284.47,458.19,298.71z"/>
	<path class="st3" d="M55.98,193.73c-10.29,0-20.37,0-30.54,0c-3.47-7.2-2.24-14.02-1.25-21.56c12.14-4.3,24.49-1.39,37.93-2.34
		C60.51,178.63,61.53,186.92,55.98,193.73z"/>
	<path class="st3" d="M474.84,193.86c-10.43,0-20.23,0-30.53,0c-6.04-6.4-4.15-15.12-7.19-24.02c13.73,0.6,26-1.34,38.32,1.93
		C477.23,179.22,477.64,185.97,474.84,193.86z"/>
	<path class="st1" d="M250.14,102.27c-6.37,0-12.76,0.26-19.11-0.07c-7.05-0.37-11.29-4.35-11.48-11.51
		c-0.18-7.12,3.73-11.79,10.79-12.06c13.04-0.49,26.12-0.49,39.16-0.06c7.02,0.23,11.11,4.77,11.02,11.89
		c-0.09,7.08-4.17,11.3-11.26,11.72C262.9,102.56,256.51,102.26,250.14,102.27z M272.49,85.13c-15.38-0.36-30.49-1.31-45.24,0.48
		c-3.53,7.12-0.65,10.41,5.21,10.63c11.79,0.45,23.63,0.48,35.42-0.05C273.82,95.93,276.29,92.32,272.49,85.13z"/>
	<path class="st1" d="M250.5,249.88c24.56,0,49.13-0.03,73.69,0.01c18.27,0.03,29.67,10.59,29.71,27.42
		c0.04,16.87-11.48,28.15-29.21,28.18c-50.08,0.08-100.17,0.08-150.25-0.02c-14.12-0.03-26.68-10.25-28.13-22.41
		c-1.91-16.07,5.87-28.77,20.07-32.34c3.03-0.76,6.3-0.79,9.47-0.8C200.74,249.86,225.62,249.88,250.5,249.88z M237.5,298.84
		c0-14,0-28.08,0-42.71c-4.2-0.16-7.87-1.01-11.15,0.54c-3.28,7.89,1.87,16.66-4.17,24.91c-5.39-8.59-0.81-17.32-4-25.45
		c-3.64-0.15-7.27-0.99-11.14,0.69c0,14.14,0,27.99,0,41.81c4.36,1.08,8.03,1.62,11.23-0.16c2.49-3.35-1-8.32,3.89-10.45
		c5.65,1.79,1.24,7.72,4.66,10.75C229.85,300.11,233.28,299.6,237.5,298.84z M244.76,257.09c0,13.71,0,27.52,0,41.89
		c3.88,0.32,7.18,1.52,10.19-0.67c2.82-7.56-2.06-16.65,5.01-25.04c3.41,9.87,0.03,18.1,3.13,26.12c3.83-0.26,7.58,1.09,10.92-1.11
		c0-14.21,0-28.04,0-41.86c-4.47-0.57-8.21-1.61-11.2,0.49c-2.45,3.4,1.14,8.47-4.03,10.25c-5.46-1.97-0.97-7.96-4.67-10.77
		C251.23,255.62,248.19,255.25,244.76,257.09z M333.18,291.86c-4.76-11.52-1.11-23.42-4.15-35.3c-3.85-0.73-7.4-1.37-11.06,0.26
		c0,14.26,0,28.08,0,41.78c15.28,2.04,26.33-4.02,29.37-15.63c2.47-9.44-1.72-18.58-10.73-22.63
		C334.85,270.86,337.87,281.87,333.18,291.86z M281.19,298.01c3.64,2.49,7.5,1.72,11.91,0.6c0-14.09,0-27.9,0-41.67
		c-4.19-1.6-7.79-1.63-11.91,0.05C281.19,270.54,281.19,284.11,281.19,298.01z M170.61,256.66c-1.31,14.07-1.44,27.98-0.02,41.59
		c4.55,1.49,7.88,1.9,11.6-0.05c0-13.74,0-27.53,0-41.14C178.66,255.21,175.58,255.73,170.61,256.66z M199.79,298.52
		c0-14.39,0-27.98,0-41.54c-3.89-1.52-7.16-1.83-10.49,0.12c0,13.96,0,27.79,0,41.74C193.09,299.58,196.14,299.9,199.79,298.52z
		 M300.52,256.85c0,14.47,0,28.29,0,42.01c3.97,0.64,7.08,1.42,10.22-0.72c0-13.8,0-27.63,0-41.7
		C307.01,255.82,303.97,255.28,300.52,256.85z M163.29,295.47c0-12.5,0-23.76,0-36.13c-7.88,4.41-11.23,10.16-11.02,18.08
		C152.47,285.12,154.89,291.49,163.29,295.47z"/>
	<path class="st1" d="M353.27,368.11c0.62,2.09,0.37,3.99-2.09,4.36c-2.5,0.37-5.09,0.29-7.63,0.29
		c-97,0.01-193.99,0.03-290.99-0.08c-3.68,0-8.43,2.08-10.78-3.19C47.42,366.2,340.8,364.97,353.27,368.11z"/>
	<path class="st1" d="M379.44,368.47c16.05-2.24,32-2.19,47.84-1.1c0.59,4.36-1.28,5.04-3.73,5.36
		C409.99,374.55,383.51,372.76,379.44,368.47z"/>
	<path class="st1" d="M439.48,369c4.67-3.14,8.31-2.95,12.18-0.94C448.41,374.2,446.75,374.39,439.48,369z"/>
	<path class="st6" d="M272.49,85.13c3.8,7.19,1.33,10.8-4.62,11.07c-11.79,0.53-23.62,0.49-35.42,0.05
		c-5.86-0.22-8.74-3.51-5.21-10.63C241.99,83.82,257.11,84.77,272.49,85.13z"/>
	<path class="st6" d="M237.5,298.84c-4.23,0.76-7.65,1.27-10.69-0.06c-3.41-3.03,0.99-8.96-4.66-10.75
		c-4.89,2.13-1.4,7.11-3.89,10.45c-3.2,1.78-6.87,1.24-11.23,0.16c0-13.83,0-27.68,0-41.81c3.88-1.68,7.51-0.84,11.14-0.69
		c3.19,8.13-1.39,16.85,4,25.45c6.03-8.25,0.89-17.02,4.17-24.91c3.28-1.55,6.94-0.7,11.15-0.54
		C237.5,270.76,237.5,284.84,237.5,298.84z"/>
	<path class="st6" d="M244.76,257.09c3.43-1.84,6.48-1.46,9.35-0.7c3.71,2.81-0.79,8.8,4.67,10.77c5.17-1.78,1.59-6.84,4.03-10.25
		c2.99-2.1,6.73-1.06,11.2-0.49c0,13.83,0,27.65,0,41.86c-3.34,2.2-7.09,0.85-10.92,1.11c-3.09-8.02,0.28-16.25-3.13-26.12
		c-7.07,8.39-2.19,17.48-5.01,25.04c-3.02,2.2-6.32,0.99-10.19,0.67C244.76,284.6,244.76,270.79,244.76,257.09z"/>
	<path class="st6" d="M333.18,291.86c4.69-9.99,1.68-21,3.43-31.51c9,4.05,13.2,13.19,10.73,22.63
		c-3.04,11.61-14.09,17.67-29.37,15.63c0-13.7,0-27.52,0-41.78c3.65-1.64,7.2-1,11.06-0.26
		C332.06,268.44,328.42,280.34,333.18,291.86z"/>
	<path class="st6" d="M281.19,298.01c0-13.89,0-27.46,0-41.02c4.12-1.68,7.72-1.64,11.91-0.05c0,13.77,0,27.57,0,41.67
		C288.7,299.72,284.83,300.49,281.19,298.01z"/>
	<path class="st6" d="M170.61,256.66c4.97-0.94,8.05-1.45,11.58,0.4c0,13.61,0,27.41,0,41.14c-3.72,1.95-7.04,1.54-11.6,0.05
		C169.17,284.65,169.3,270.73,170.61,256.66z"/>
	<path class="st6" d="M199.79,298.52c-3.65,1.39-6.7,1.07-10.49,0.33c0-13.95,0-27.78,0-41.74c3.33-1.95,6.6-1.64,10.49-0.12
		C199.79,270.53,199.79,284.13,199.79,298.52z"/>
	<path class="st6" d="M300.52,256.85c3.45-1.57,6.5-1.03,10.22-0.42c0,14.07,0,27.91,0,41.7c-3.14,2.14-6.26,1.36-10.22,0.72
		C300.52,285.13,300.52,271.31,300.52,256.85z"/>
	<path class="st6" d="M163.29,295.47c-8.4-3.99-10.82-10.36-11.02-18.06c-0.21-7.92,3.13-13.66,11.02-18.08
		C163.29,271.71,163.29,282.97,163.29,295.47z"/>
</g>
</svg>
